# xmcd
#
# Track frame offsets:
#	150
#	20744
#	35055
#	48564
#	61997
#	79089
#	93712
#	106229
#	121361
#	135049
#	152475
#	170412
#
# Disc length: 2470 seconds
#
# Revision: 1
# Processed by: cddbd v1.5.2PL0 Copyright (c) Steve Scherf et al.
# Submitted via: EZCDAudioConverter 8.0.2.1
#
DISCID=9709a40c
DTITLE=JOÃO PAULO and DANIEL  - SUCESSOS DE OURO CD 01 [CD 398422836-2) CHANTECL
DTITLE=ER
DYEAR=1997
DGENRE=Sertanejo
TTITLE0=PALOMA (LA PALOMA) (BY GILMAR SINISTRO)
TTITLE1=CAMINHONEIRO DO AMOR (BY GILMAR SINISTRO)
TTITLE2=AOS TRANCOS E BARRANCOS (BY GILMAR SINISTRO)
TTITLE3=GOSTO DE HORTELÃ (BY GILMAR SINISTRO)
TTITLE4=DESEJO DE AMAR (BY GILMAR SINISTRO)
TTITLE5=TÁ FALTANDO AMOR (BY GILMAR SINISTRO)
TTITLE6=O CHEIRO DELA (BY GILMAR SINISTRO)
TTITLE7=ALGUÉM (BY GILMAR SINISTRO)
TTITLE8=SÓ DÁ VOCÊ NA MINHA VIDA (BY GILMAR SINISTRO)
TTITLE9=HOJE EU SEI (BY GILMAR SINISTRO)
TTITLE10=DIA DE VISITA (BY GILMAR SINISTRO)
TTITLE11=EU ME AMARREI (BY GILMAR SINISTRO)
EXTD=
EXTT0=
EXTT1=
EXTT2=
EXTT3=
EXTT4=
EXTT5=
EXTT6=
EXTT7=
EXTT8=
EXTT9=
EXTT10=
EXTT11=
PLAYORDER=
